<svg width="544" height="641" viewBox="0 0 544 641" fill="none" xmlns="http://www.w3.org/2000/svg">
<g opacity="0.5">
<path d="M437.205 551.819H192.09C133.35 551.819 85.7305 504.201 85.7305 445.459V266.86C85.7305 208.119 133.349 160.5 192.09 160.5H437.205C495.945 160.5 543.564 208.119 543.564 266.86V445.459C543.564 504.201 495.945 551.819 437.205 551.819Z" fill="#2D8014"/>
<path d="M436.935 551.151H191.821C133.08 551.151 85.4609 503.532 85.4609 444.791V266.192C85.4609 207.451 133.08 159.832 191.821 159.832H436.935C495.676 159.832 543.295 207.451 543.295 266.192V444.791C543.295 503.532 495.676 551.151 436.935 551.151Z" fill="#2C7F14"/>
<path d="M436.668 550.479H191.553C132.812 550.479 85.1934 502.86 85.1934 444.119V265.52C85.1934 206.779 132.812 159.16 191.553 159.16H436.668C495.408 159.16 543.027 206.779 543.027 265.52V444.119C543.027 502.86 495.408 550.479 436.668 550.479Z" fill="#2B7E14"/>
<path d="M436.398 549.808H191.284C132.543 549.808 84.9238 502.189 84.9238 443.448V264.848C84.9238 206.107 132.542 158.488 191.284 158.488H436.398C495.139 158.488 542.758 206.107 542.758 264.848V443.448C542.757 502.189 495.139 549.808 436.398 549.808Z" fill="#2B7D14"/>
<path d="M436.128 549.139H191.014C132.273 549.139 84.6543 501.52 84.6543 442.78V264.18C84.6543 205.439 132.273 157.82 191.014 157.82H436.128C494.869 157.82 542.488 205.439 542.488 264.18V442.78C542.488 501.521 494.87 549.139 436.128 549.139Z" fill="#2A7C14"/>
<path d="M435.86 548.467H190.746C132.006 548.467 84.3867 500.848 84.3867 442.108V263.508C84.3867 204.768 132.005 157.148 190.746 157.148H435.861C494.602 157.148 542.221 204.767 542.221 263.508V442.108C542.22 500.849 494.602 548.467 435.86 548.467Z" fill="#297B14"/>
<path d="M435.591 547.799H190.477C131.736 547.799 84.1172 500.181 84.1172 441.44V262.84C84.1172 204.1 131.736 156.48 190.477 156.48H435.591C494.332 156.48 541.951 204.099 541.951 262.84V441.44C541.951 500.181 494.333 547.799 435.591 547.799Z" fill="#287A14"/>
<path d="M435.32 547.128H190.205C131.465 547.128 83.8457 499.509 83.8457 440.768V262.168C83.8457 203.428 131.464 155.809 190.205 155.809H435.32C494.061 155.809 541.68 203.427 541.68 262.168V440.768C541.68 499.509 494.061 547.128 435.32 547.128Z" fill="#287914"/>
<path d="M435.05 546.46H189.936C131.195 546.46 83.5762 498.841 83.5762 440.1V261.5C83.5762 202.76 131.195 155.141 189.936 155.141H435.05C493.791 155.141 541.41 202.759 541.41 261.5V440.1C541.41 498.841 493.791 546.46 435.05 546.46Z" fill="#277814"/>
<path d="M434.781 545.788H189.666C130.926 545.788 83.3066 498.169 83.3066 439.428V260.828C83.3066 202.088 130.925 154.469 189.666 154.469H434.781C493.521 154.469 541.141 202.088 541.141 260.828V439.428C541.141 498.169 493.521 545.788 434.781 545.788Z" fill="#267714"/>
<path d="M434.513 545.116H189.399C130.658 545.116 83.0391 497.497 83.0391 438.756V260.157C83.0391 201.416 130.658 153.797 189.399 153.797H434.513C493.254 153.797 540.873 201.416 540.873 260.157V438.756C540.873 497.497 493.254 545.116 434.513 545.116Z" fill="#257614"/>
<path d="M434.244 544.448H189.129C130.389 544.448 82.7695 496.829 82.7695 438.088V259.489C82.7695 200.748 130.388 153.129 189.129 153.129H434.244C492.984 153.129 540.603 200.747 540.603 259.489V438.088C540.603 496.829 492.984 544.448 434.244 544.448Z" fill="#257514"/>
<path d="M433.974 543.776H188.86C130.119 543.776 82.5 496.157 82.5 437.416V258.817C82.5 200.076 130.119 152.457 188.86 152.457H433.974C492.715 152.457 540.334 200.076 540.334 258.817V437.416C540.333 496.157 492.715 543.776 433.974 543.776Z" fill="#247413"/>
<path d="M433.707 543.108H188.592C129.852 543.108 82.2324 495.489 82.2324 436.748V258.149C82.2324 199.408 129.851 151.789 188.592 151.789H433.707C492.447 151.789 540.066 199.408 540.066 258.149V436.748C540.066 495.489 492.448 543.108 433.707 543.108Z" fill="#237313"/>
<path d="M433.437 542.436H188.323C129.582 542.436 81.9629 494.817 81.9629 436.076V257.477C81.9629 198.736 129.581 151.117 188.323 151.117H433.437C492.178 151.117 539.797 198.736 539.797 257.477V436.076C539.797 494.817 492.178 542.436 433.437 542.436Z" fill="#227213"/>
<path d="M433.168 541.764H188.053C129.312 541.764 81.6934 494.145 81.6934 435.405V256.805C81.6934 198.064 129.312 150.445 188.053 150.445H433.168C491.908 150.445 539.527 198.064 539.527 256.805V435.405C539.527 494.145 491.908 541.764 433.168 541.764Z" fill="#227113"/>
<path d="M432.896 541.096H187.782C129.041 541.096 81.4219 493.477 81.4219 434.737V256.137C81.4219 197.396 129.04 149.777 187.782 149.777H432.896C491.637 149.777 539.256 197.396 539.256 256.137V434.737C539.256 493.477 491.637 541.096 432.896 541.096Z" fill="#217013"/>
<path d="M432.63 540.424H187.516C128.775 540.424 81.1562 492.805 81.1562 434.065V255.465C81.1562 196.725 128.775 149.105 187.516 149.105H432.63C491.371 149.105 538.99 196.724 538.99 255.465V434.065C538.99 492.806 491.371 540.424 432.63 540.424Z" fill="#206F13"/>
<path d="M432.361 539.757H187.246C128.506 539.757 80.8867 492.138 80.8867 433.397V254.797C80.8867 196.057 128.505 148.438 187.246 148.438H432.361C491.102 148.438 538.721 196.057 538.721 254.797V433.397C538.721 492.138 491.102 539.757 432.361 539.757Z" fill="#1F6E13"/>
<path d="M432.091 539.085H186.977C128.236 539.085 80.6172 491.466 80.6172 432.725V254.125C80.6172 195.385 128.236 147.766 186.977 147.766H432.091C490.832 147.766 538.451 195.384 538.451 254.125V432.725C538.451 491.466 490.832 539.085 432.091 539.085Z" fill="#1F6D13"/>
<path d="M431.822 538.413H186.707C127.967 538.413 80.3477 490.794 80.3477 432.053V253.453C80.3477 194.713 127.966 147.094 186.707 147.094H431.822C490.562 147.094 538.182 194.713 538.182 253.453V432.053C538.181 490.794 490.562 538.413 431.822 538.413Z" fill="#1E6C13"/>
<path d="M431.552 537.745H186.438C127.697 537.745 80.0781 490.126 80.0781 431.385V252.786C80.0781 194.045 127.697 146.426 186.438 146.426H431.552C490.293 146.426 537.912 194.045 537.912 252.786V431.385C537.912 490.126 490.293 537.745 431.552 537.745Z" fill="#1D6B13"/>
<path d="M431.283 537.073H186.168C127.428 537.073 79.8086 489.454 79.8086 430.713V252.114C79.8086 193.373 127.427 145.754 186.168 145.754H431.283C490.023 145.754 537.642 193.372 537.642 252.114V430.713C537.642 489.454 490.024 537.073 431.283 537.073Z" fill="#1C6A13"/>
<path d="M431.013 536.405H185.899C127.158 536.405 79.5391 488.786 79.5391 430.046V251.446C79.5391 192.705 127.158 145.086 185.899 145.086H431.013C489.754 145.086 537.373 192.705 537.373 251.446V430.045C537.373 488.786 489.754 536.405 431.013 536.405Z" fill="#1C6913"/>
<path d="M430.746 535.733H185.631C126.891 535.733 79.2715 488.114 79.2715 429.373V250.774C79.2715 192.033 126.89 144.414 185.631 144.414H430.746C489.486 144.414 537.105 192.033 537.105 250.774V429.373C537.105 488.115 489.486 535.733 430.746 535.733Z" fill="#1B6913"/>
<path d="M430.476 535.061H185.362C126.621 535.061 79.002 487.442 79.002 428.701V250.102C79.002 191.361 126.621 143.742 185.362 143.742H430.476C489.217 143.742 536.836 191.361 536.836 250.102V428.701C536.836 487.443 489.217 535.061 430.476 535.061Z" fill="#1A6813"/>
<path d="M430.207 534.393H185.092C126.352 534.393 78.7324 486.774 78.7324 428.034V249.434C78.7324 190.693 126.351 143.074 185.092 143.074H430.207C488.947 143.074 536.566 190.693 536.566 249.434V428.034C536.566 486.774 488.947 534.393 430.207 534.393Z" fill="#1A6713"/>
<path d="M429.937 533.721H184.823C126.082 533.721 78.4629 486.103 78.4629 427.362V248.762C78.4629 190.021 126.081 142.402 184.823 142.402H429.937C488.678 142.402 536.297 190.021 536.297 248.762V427.362C536.297 486.102 488.678 533.721 429.937 533.721Z" fill="#196613"/>
<path d="M429.669 533.053H184.555C125.814 533.053 78.1953 485.435 78.1953 426.694V248.094C78.1953 189.353 125.814 141.734 184.555 141.734H429.669C488.41 141.734 536.029 189.353 536.029 248.094V426.694C536.029 485.434 488.41 533.053 429.669 533.053Z" fill="#186513"/>
<path d="M429.4 532.381H184.286C125.545 532.381 77.9258 484.762 77.9258 426.021V247.422C77.9258 188.682 125.545 141.062 184.286 141.062H429.4C488.141 141.062 535.76 188.682 535.76 247.422V426.022C535.759 484.762 488.141 532.381 429.4 532.381Z" fill="#176413"/>
<path d="M429.13 531.714H184.016C125.275 531.714 77.6562 484.095 77.6562 425.354V246.754C77.6562 188.014 125.275 140.395 184.016 140.395H429.13C487.871 140.395 535.49 188.013 535.49 246.754V425.354C535.49 484.095 487.872 531.714 429.13 531.714Z" fill="#176313"/>
<path d="M428.861 531.042H183.746C125.006 531.042 77.3867 483.423 77.3867 424.682V246.082C77.3867 187.342 125.005 139.723 183.746 139.723H428.861C487.602 139.723 535.221 187.342 535.221 246.082V424.682C535.221 483.423 487.602 531.042 428.861 531.042Z" fill="#166213"/>
<path d="M428.591 530.37H183.477C124.736 530.37 77.1172 482.751 77.1172 424.01V245.411C77.1172 186.67 124.736 139.051 183.477 139.051H428.591C487.332 139.051 534.951 186.67 534.951 245.411V424.01C534.951 482.751 487.332 530.37 428.591 530.37Z" fill="#156113"/>
<path d="M428.322 529.702H183.207C124.467 529.702 76.8477 482.083 76.8477 423.342V244.743C76.8477 186.002 124.467 138.383 183.207 138.383H428.322C487.062 138.383 534.682 186.001 534.682 244.743V423.342C534.682 482.083 487.062 529.702 428.322 529.702Z" fill="#146013"/>
<path d="M428.052 529.03H182.938C124.197 529.03 76.5781 481.411 76.5781 422.67V244.071C76.5781 185.33 124.197 137.711 182.938 137.711H428.052C486.793 137.711 534.412 185.33 534.412 244.071V422.67C534.412 481.411 486.793 529.03 428.052 529.03Z" fill="#145F13"/>
<path d="M427.783 528.362H182.668C123.928 528.362 76.3086 480.743 76.3086 422.002V243.403C76.3086 184.662 123.927 137.043 182.668 137.043H427.783C486.523 137.043 534.142 184.662 534.142 243.403V422.002C534.142 480.743 486.523 528.362 427.783 528.362Z" fill="#135E13"/>
<path d="M427.515 527.691H182.401C123.66 527.691 76.041 480.072 76.041 421.331V242.731C76.041 183.99 123.66 136.371 182.401 136.371H427.515C486.256 136.371 533.875 183.99 533.875 242.731V421.33C533.875 480.072 486.256 527.691 427.515 527.691Z" fill="#125D13"/>
<path d="M427.246 527.018H182.131C123.391 527.018 75.7715 479.4 75.7715 420.659V242.059C75.7715 183.318 123.391 135.699 182.131 135.699H427.246C485.986 135.699 533.605 183.318 533.605 242.059V420.659C533.605 479.4 485.986 527.018 427.246 527.018Z" fill="#115C12"/>
<path d="M426.976 526.35H181.862C123.121 526.35 75.502 478.732 75.502 419.991V241.391C75.502 182.65 123.121 135.031 181.862 135.031H426.976C485.717 135.031 533.336 182.65 533.336 241.391V419.991C533.335 478.732 485.717 526.35 426.976 526.35Z" fill="#115B12"/>
<path d="M426.709 525.678H181.594C122.853 525.678 75.2344 478.059 75.2344 419.319V240.719C75.2344 181.978 122.853 134.359 181.594 134.359H426.709C485.449 134.359 533.068 181.978 533.068 240.719V419.319C533.068 478.059 485.45 525.678 426.709 525.678Z" fill="#105A12"/>
<path d="M426.439 525.01H181.325C122.584 525.01 74.9648 477.391 74.9648 418.651V240.051C74.9648 181.311 122.583 133.691 181.325 133.691H426.439C485.18 133.691 532.799 181.311 532.799 240.051V418.651C532.799 477.391 485.18 525.01 426.439 525.01Z" fill="#0F5912"/>
<path d="M426.168 524.339H181.053C122.312 524.339 74.6934 476.719 74.6934 417.979V239.379C74.6934 180.639 122.312 133.02 181.053 133.02H426.168C484.908 133.02 532.527 180.638 532.527 239.379V417.979C532.527 476.719 484.909 524.339 426.168 524.339Z" fill="#0E5812"/>
<path d="M425.9 523.667H180.786C122.045 523.667 74.4258 476.048 74.4258 417.307V238.707C74.4258 179.967 122.045 132.348 180.786 132.348H425.9C484.641 132.348 532.26 179.967 532.26 238.707V417.307C532.26 476.048 484.641 523.667 425.9 523.667Z" fill="#0E5712"/>
<path d="M425.632 522.999H180.518C121.777 522.999 74.1582 475.38 74.1582 416.639V238.039C74.1582 179.299 121.777 131.68 180.518 131.68H425.632C484.373 131.68 531.992 179.298 531.992 238.039V416.639C531.992 475.38 484.373 522.999 425.632 522.999Z" fill="#0D5612"/>
<path d="M425.363 522.327H180.248C121.508 522.327 73.8887 474.708 73.8887 415.967V237.368C73.8887 178.627 121.507 131.008 180.248 131.008H425.363C484.103 131.008 531.723 178.626 531.723 237.368V415.967C531.723 474.708 484.103 522.327 425.363 522.327Z" fill="#0C5512"/>
<path d="M425.091 521.659H179.977C121.236 521.659 73.6172 474.04 73.6172 415.299V236.7C73.6172 177.959 121.236 130.34 179.977 130.34H425.091C483.832 130.34 531.451 177.958 531.451 236.7V415.299C531.451 474.04 483.832 521.659 425.091 521.659Z" fill="#0B5412"/>
<path d="M424.822 520.987H179.707C120.967 520.987 73.3477 473.368 73.3477 414.627V236.028C73.3477 177.287 120.966 129.668 179.707 129.668H424.822C483.562 129.668 531.182 177.287 531.182 236.028V414.627C531.181 473.368 483.562 520.987 424.822 520.987Z" fill="#0B5312"/>
<path d="M424.554 520.319H179.44C120.699 520.319 73.0801 472.7 73.0801 413.959V235.36C73.0801 176.619 120.699 129 179.44 129H424.554C483.295 129 530.914 176.619 530.914 235.36V413.959C530.914 472.7 483.295 520.319 424.554 520.319Z" fill="#0A5212"/>
<path d="M424.285 519.647H179.17C120.43 519.647 72.8105 472.028 72.8105 413.287V234.688C72.8105 175.947 120.429 128.328 179.17 128.328H424.285C483.025 128.328 530.644 175.947 530.644 234.688V413.287C530.644 472.028 483.026 519.647 424.285 519.647Z" fill="#095112"/>
</g>
<path d="M418.74 531.11H160.705C101.965 531.11 54.3457 483.491 54.3457 424.75V220.215C54.3457 161.475 101.964 113.855 160.705 113.855H418.74C477.48 113.855 525.099 161.475 525.099 220.215V424.75C525.099 483.491 477.481 531.11 418.74 531.11Z" fill="url(#paint0_linear_4187_106)"/>
<path d="M160.705 516.635C110.038 516.635 68.8184 475.416 68.8184 424.75V220.214C68.8184 169.547 110.038 128.328 160.705 128.328H418.738C469.405 128.328 510.624 169.547 510.624 220.214V424.75C510.624 475.415 469.405 516.634 418.738 516.634L160.705 516.635Z" fill="url(#paint1_linear_4187_106)"/>
<path opacity="0.31" d="M405.513 516.635C402.308 516.67 483.041 500.442 510.446 430.449C510.446 430.449 505.915 515.529 405.513 516.635Z" fill="white"/>
<path opacity="0.31" d="M190.363 128.806C193.549 129.146 115.351 126.367 72.4629 194.567C72.4629 194.567 88.9264 117.96 190.363 128.806Z" fill="#15A208"/>
<g opacity="0.38">
<path d="M411.844 207.118C400.671 198.006 380.525 196.326 370.972 209.43C351.802 235.721 332.061 261.591 311.716 286.985C301.687 299.501 291.518 311.905 281.206 324.191C276.491 329.809 271.741 335.399 266.968 340.968C263.732 337.515 260.497 334.064 257.26 330.613C248.245 320.995 239.229 311.376 230.214 301.758C219.829 290.679 198.622 292.69 189.341 304.071C178.691 317.13 180.529 333.076 191.653 344.944C200.669 354.562 209.685 364.179 218.7 373.798C227.003 382.655 234.929 392.324 243.816 400.591C252.776 408.926 264.866 412.902 276.849 409.399C285.693 406.813 291.712 400.797 297.572 394.084C305.71 384.763 313.764 375.37 321.737 365.908C353.924 327.705 384.726 288.353 414.157 247.99C423.051 235.791 424.8 217.683 411.844 207.118ZM253.244 356.821C249.856 358.945 249.95 360.505 253.244 356.821V356.821Z" fill="url(#paint2_linear_4187_106)"/>
</g>
<path d="M420.665 199.251C408.598 189.41 386.839 187.596 376.519 201.748C355.814 230.145 334.493 258.088 312.518 285.514C301.686 299.034 290.702 312.431 279.565 325.701C274.472 331.769 269.341 337.806 264.186 343.822C260.691 340.093 257.197 336.364 253.701 332.637C243.963 322.249 234.226 311.86 224.488 301.471C213.271 289.505 190.367 291.676 180.342 303.969C168.839 318.074 170.824 335.297 182.839 348.115C192.577 358.503 202.315 368.892 212.053 379.281C221.021 388.848 229.581 399.29 239.18 408.219C248.857 417.222 261.916 421.516 274.859 417.733C284.411 414.941 290.911 408.443 297.242 401.191C306.03 391.124 314.73 380.979 323.341 370.759C358.106 329.497 391.375 286.993 423.163 243.397C432.769 230.221 434.659 210.662 420.665 199.251Z" fill="white"/>
<path d="M400.366 39.464C393.093 41.3287 384.101 44.0404 378.698 49.5056C372.114 56.1631 369.693 66.3067 367.542 76.4209C367.335 77.3958 365.997 77.3968 365.789 76.4219C364.054 68.3162 361.817 58.5851 357.122 52.5668C351.149 44.9116 341.947 41.7798 332.912 39.464C331.967 39.2217 331.967 37.9309 332.912 37.6885C340.813 35.663 349.866 32.9776 355.518 26.7639C361.411 20.2863 363.777 10.1298 365.789 0.730641C365.997 -0.244228 367.335 -0.243206 367.542 0.731664C369.42 9.56065 372.625 19.5934 377.969 25.8891C383.771 32.7245 391.967 35.5352 400.366 37.6885C401.311 37.9309 401.311 39.2217 400.366 39.464Z" fill="#0170BA"/>
<path d="M110.736 582.227C102.557 584.323 92.4466 587.373 86.37 593.518C78.9675 601.004 76.245 612.41 73.8261 623.783C73.5931 624.879 72.0893 624.88 71.8548 623.784C69.904 614.669 67.3897 603.727 62.1097 596.96C55.3933 588.353 45.0461 584.831 34.8865 582.227C33.8245 581.955 33.824 580.503 34.8865 580.231C43.7712 577.953 53.9509 574.933 60.3063 567.946C66.9319 560.662 69.5926 549.242 71.8548 538.673C72.0893 537.577 73.5931 537.578 73.8261 538.675C75.9378 548.602 79.5413 559.883 85.5504 566.963C92.0744 574.649 101.291 577.81 110.735 580.231C111.798 580.503 111.798 581.954 110.736 582.227Z" fill="#0170BA"/>
<path d="M33.7472 303.398C30.2189 304.303 25.857 305.618 23.236 308.269C20.0423 311.499 18.8679 316.42 17.8245 321.326C17.7239 321.798 17.0754 321.799 16.9738 321.326C16.1325 317.394 15.0478 312.673 12.7697 309.754C9.8724 306.041 5.40842 304.521 1.02537 303.398C0.567064 303.28 0.567064 302.654 1.02537 302.537C4.85835 301.554 9.24964 300.251 11.9918 297.237C14.8499 294.095 15.9979 289.168 16.9738 284.608C17.0749 284.136 17.7239 284.136 17.8245 284.609C18.7354 288.892 20.2903 293.759 22.8823 296.813C25.6971 300.128 29.6729 301.492 33.7472 302.537C34.2055 302.654 34.2055 303.28 33.7472 303.398Z" fill="#0170BA"/>
<path d="M269.605 77.5815C266.077 78.4863 261.715 79.8014 259.093 82.4528C255.9 85.6826 254.725 90.6033 253.682 95.5091C253.581 95.9824 252.933 95.9829 252.831 95.5097C251.989 91.5777 250.905 86.857 248.627 83.9375C245.73 80.2242 241.266 78.7049 236.883 77.5815C236.424 77.464 236.424 76.8376 236.883 76.7201C240.716 75.7375 245.107 74.4348 247.849 71.4204C250.707 68.2783 251.855 63.3513 252.831 58.792C252.932 58.3192 253.581 58.3193 253.682 58.7925C254.593 63.0755 256.148 67.9422 258.74 70.9962C261.555 74.3121 265.53 75.6756 269.605 76.7201C270.063 76.8376 270.063 77.464 269.605 77.5815Z" fill="#0170BA"/>
<path d="M347.713 622.589C344.184 623.494 339.822 624.809 337.201 627.461C334.007 630.69 332.833 635.611 331.789 640.517C331.689 640.99 331.04 640.99 330.939 640.518C330.097 636.586 329.012 631.865 326.735 628.945C323.837 625.232 319.373 623.713 314.99 622.589C314.532 622.472 314.532 621.845 314.99 621.728C318.823 620.745 323.215 619.443 325.957 616.428C328.815 613.286 329.963 608.359 330.939 603.8C331.04 603.327 331.689 603.327 331.789 603.8C332.7 608.083 334.255 612.95 336.847 616.004C339.662 619.32 343.638 620.683 347.712 621.728C348.171 621.845 348.171 622.472 347.713 622.589Z" fill="#0170BA"/>
<defs>
<linearGradient id="paint0_linear_4187_106" x1="63.7752" y1="152.528" x2="537.238" y2="508.66" gradientUnits="userSpaceOnUse">
<stop stop-color="#89D81A"/>
<stop offset="1" stop-color="#49C00F"/>
</linearGradient>
<linearGradient id="paint1_linear_4187_106" x1="75.878" y1="161.632" x2="523.977" y2="498.686" gradientUnits="userSpaceOnUse">
<stop stop-color="#49C00F"/>
<stop offset="1" stop-color="#89D81A"/>
</linearGradient>
<linearGradient id="paint2_linear_4187_106" x1="182.257" y1="305.307" x2="421.195" y2="305.307" gradientUnits="userSpaceOnUse">
<stop stop-color="#49C00F"/>
<stop offset="1" stop-color="#89D81A"/>
</linearGradient>
</defs>
</svg>
