<svg width="107" height="107" viewBox="0 0 107 107" fill="none" xmlns="http://www.w3.org/2000/svg">
<path d="M2.26313 51.6561C-0.139926 52.6174 -0.766811 55.7306 1.05116 57.5484L12.5023 68.9985L27.7983 63.9003L22.6996 79.195L49.4467 105.94C51.2856 107.779 54.3782 107.131 55.3394 104.728L75.8386 53.8083L53.1871 31.1588L2.26313 51.6561ZM106.013 5.70936L101.29 0.987275C99.9946 -0.329092 97.8632 -0.329092 96.5676 0.987275L75.1908 22.3414L66.7488 13.9C65.8711 13.0015 64.3666 13.2732 63.8442 14.4226L58.1604 26.6667L80.3313 48.8356L92.5764 43.1523C93.7048 42.6298 93.9765 41.1256 93.0988 40.248L84.6568 31.8067L106.013 10.4317C107.329 9.13622 107.329 7.02573 106.013 5.70936Z" fill="white"/>
</svg>
