<svg width="78" height="109" viewBox="0 0 78 109" fill="none" xmlns="http://www.w3.org/2000/svg">
<path d="M74.4803 101.415H70.9615V82.6477C70.9615 70.3899 63.9482 59.759 53.7352 54.4976C64.0528 49.1822 70.9615 38.5085 70.9615 26.3474V7.58046H74.4803C76.4229 7.58046 77.9992 6.00545 77.9992 4.06161C77.999 2.11798 76.4229 0.542969 74.4803 0.542969C60.3674 0.542969 18.3593 0.542969 4.10479 0.542969C2.16221 0.542969 0.585938 2.11798 0.585938 4.06182C0.585938 6.00566 2.16221 7.58067 4.10479 7.58067H7.62364V26.3476C7.62364 38.5068 14.5305 49.1816 24.8499 54.4978C14.6367 59.7592 7.62364 70.3901 7.62364 82.648V101.415H4.10479C2.16221 101.415 0.585938 102.99 0.585938 104.934C0.585938 106.878 2.16221 108.453 4.10479 108.453C27.609 108.453 50.9985 108.453 74.4803 108.453C76.4229 108.453 77.9992 106.878 77.9992 104.934C77.999 102.99 76.4229 101.415 74.4803 101.415ZM14.7686 28.471C14.5964 26.4669 14.6609 27.3211 14.6609 7.58046H63.924C63.924 27.3211 63.9885 26.4669 63.8163 28.471H14.7686ZM63.924 97.4212C44.5121 81.2443 45.2197 81.5358 42.8113 80.6847V76.7831C42.8113 74.8393 41.235 73.2643 39.2925 73.2643C37.3499 73.2643 35.7736 74.8393 35.7736 76.7831V80.6845C33.3905 81.5267 34.1364 81.191 14.6609 97.421V82.6477C14.6609 70.2637 23.8564 60.014 35.7736 58.2974V62.7079C35.7736 64.6518 37.3499 66.2268 39.2925 66.2268C41.235 66.2268 42.8113 64.6518 42.8113 62.7079V58.2974C54.7285 60.014 63.924 70.2637 63.924 82.6477V97.4212Z" fill="white"/>
</svg>
