<svg width="38" height="35" viewBox="0 0 38 35" fill="none" xmlns="http://www.w3.org/2000/svg">
<path d="M30.3333 9.75V8.2C30.3333 6.02981 30.3333 4.94469 29.9216 4.11579C29.5595 3.38665 28.9815 2.79385 28.2707 2.42236C27.4626 2 26.4046 2 24.2889 2H8.04444C5.92868 2 4.87081 2 4.0627 2.42236C3.35186 2.79385 2.77393 3.38665 2.41176 4.11579C2 4.94469 2 6.02981 2 8.2V9.75M2 9.75V26.8C2 28.9702 2 30.0554 2.41176 30.8843C2.77393 31.6133 3.35186 32.2062 4.0627 32.5776C4.87081 33 5.92868 33 8.04444 33H29.9556C32.0713 33 33.1293 33 33.9373 32.5776C34.6481 32.2062 35.2261 31.6133 35.5882 30.8843C36 30.0554 36 28.9702 36 26.8V15.95C36 13.7798 36 12.6947 35.5882 11.8658C35.2261 11.1366 34.6481 10.5439 33.9373 10.1724C33.1293 9.75 32.0713 9.75 29.9556 9.75H2ZM36 17.5H32.2222C30.1358 17.5 28.4444 19.2348 28.4444 21.375C28.4444 23.5152 30.1358 25.25 32.2222 25.25H36" stroke="white" stroke-width="4" stroke-linecap="round" stroke-linejoin="round"/>
</svg>
