<svg width="304" height="422" viewBox="0 0 304 422" fill="none" xmlns="http://www.w3.org/2000/svg">
<path d="M295.323 0.00117895H294.709L294.704 0.000976562H290.709L8.67683 0.00117895C3.88513 0.00117895 0.00101039 3.88549 0.00101039 8.677V25.2118C0.00101039 30.0033 3.88533 33.8876 8.67683 33.8876H10.035V37.474C10.035 41.5376 10.9329 45.4012 12.5395 48.8773L12.5393 48.8771L12.547 48.8937L12.6413 49.0956L12.6442 49.1015C12.7446 49.3137 12.8477 49.5243 12.9532 49.7333L12.9716 49.7695C13.1136 50.0496 13.2602 50.3268 13.4112 50.6012L13.4179 50.6133C13.5293 50.8156 13.6435 51.0161 13.7597 51.2151L13.779 51.2477C13.9359 51.515 14.0971 51.7791 14.2625 52.0405L14.285 52.0762C14.4519 52.3388 14.623 52.5984 14.7985 52.8548L14.8141 52.8777C14.9437 53.0666 15.0754 53.2537 15.2094 53.4392L15.2254 53.4617L15.3595 53.6451L15.3668 53.6552C15.5045 53.8417 15.6442 54.0266 15.7865 54.2095L15.8064 54.235C15.9975 54.4802 16.1925 54.7224 16.3916 54.9609L16.4116 54.985C16.5591 55.1612 16.7085 55.3356 16.8604 55.5081L16.8729 55.5225L17.0216 55.6897L17.043 55.7136C17.1923 55.8799 17.3433 56.0441 17.4962 56.2065L17.53 56.2424L17.6807 56.4005L17.6872 56.4072C17.8441 56.5706 18.0031 56.7318 18.1641 56.8914L18.2151 56.9418C18.3674 57.0918 18.5213 57.2401 18.6768 57.3867L18.7169 57.4245L18.8651 57.5624L18.9125 57.606C19.0668 57.7479 19.2227 57.8879 19.3801 58.0262L19.438 58.0772L19.587 58.2066L19.6303 58.2436C19.732 58.3309 19.8345 58.4174 19.9373 58.503L19.9708 58.531L20.1151 58.6497L20.1844 58.7064L20.3292 58.8234L20.3873 58.8698L20.6534 59.0794L20.7348 59.1427L20.8731 59.2486L20.9549 59.3108L21.0966 59.4175L21.1432 59.452C21.2418 59.5253 21.3407 59.5977 21.4403 59.6696L21.5083 59.7186L21.6576 59.8249L21.7412 59.8837C21.8522 59.9618 21.9637 60.0392 22.0759 60.1155L22.0788 60.1174L22.2331 60.2212L22.3159 60.2767L22.4607 60.3725L22.5613 60.4381L22.7986 60.5906L22.9017 60.656L23.0449 60.7453L23.1417 60.805L23.2865 60.8937L23.3814 60.9506L23.6246 61.0952L23.7484 61.1675L23.8707 61.238L24.0096 61.317L24.1246 61.382L24.3504 61.5069L24.4727 61.5731L24.6059 61.6448L24.7307 61.7108L24.8886 61.7932L25.0273 61.8647L25.2254 61.965L25.3396 62.0216L25.4908 62.096L25.6059 62.1519L25.792 62.2405L25.9566 62.3177L26.1097 62.3882L26.237 62.4459L26.3875 62.5131L26.5007 62.5633L26.7473 62.6698L26.8563 62.7158L27.0238 62.7857L27.1386 62.8329L27.3129 62.9033L27.4136 62.9436L27.6728 63.0443L27.7689 63.0809L27.952 63.1496L28.061 63.1899L28.3074 63.2788L28.3706 63.3012L28.6057 63.3828L28.7118 63.4187L28.9035 63.4827L28.9959 63.513L29.2686 63.6003L29.3484 63.6248L29.5633 63.6904L29.656 63.7182L29.8642 63.7791L29.9561 63.8057L30.2305 63.8822L30.3174 63.9057L30.5312 63.9624L30.6215 63.9861L30.8878 64.0531L30.9162 64.0604L31.2015 64.1286L31.3042 64.1523L31.5174 64.2003L31.599 64.2183C31.6982 64.24 31.7978 64.2613 31.8973 64.2817L31.9392 64.2902L32.1919 64.3407L32.2903 64.3595L32.5224 64.4028L32.5937 64.4158C32.6929 64.4334 32.7921 64.4506 32.8915 64.4674L32.9632 64.4792L33.1967 64.5166L33.2949 64.5318L33.5407 64.5681L33.5995 64.5766C33.6989 64.5905 33.7987 64.6039 33.8986 64.6169L33.9852 64.6278L34.2222 64.6566L34.3007 64.6659C34.4044 64.6776 34.5079 64.6889 34.6118 64.6997L34.632 64.7017L34.9183 64.729L35.0113 64.7373L35.2508 64.7572L35.3276 64.7633C35.4309 64.7712 35.5343 64.7785 35.6382 64.7851L35.6951 64.7886L35.9523 64.8034L36.044 64.808L36.3109 64.82L36.3599 64.822C36.4638 64.8258 36.5679 64.8291 36.672 64.8319L36.7554 64.8337L36.999 64.8384L37.0855 64.8396L37.2606 64.841C43.6399 121.802 84.9623 172.967 122.712 195.213C129.568 199.254 129.568 209.291 122.712 213.331C82.0196 237.311 37.1756 294.895 36.4239 357.119L36.3597 357.121L36.3107 357.123L36.0438 357.135L35.9521 357.14L35.6949 357.154L35.638 357.158C35.5343 357.165 35.4307 357.172 35.3274 357.18L35.2506 357.186L35.0111 357.206L34.9181 357.214L34.6318 357.241L34.6116 357.243C34.5079 357.254 34.4042 357.265 34.3005 357.277L34.222 357.287L33.985 357.315L33.8984 357.326C33.7985 357.339 33.6987 357.353 33.5993 357.367L33.5405 357.375L33.2947 357.411L33.1965 357.426L32.963 357.464L32.8913 357.476C32.7919 357.492 32.6927 357.509 32.5935 357.527L32.5222 357.54L32.2901 357.584L32.1917 357.603L31.939 357.653L31.8971 357.662C31.7976 357.682 31.698 357.704 31.5988 357.725L31.5172 357.743L31.304 357.791L31.2013 357.815L30.916 357.883L30.8876 357.89L30.6213 357.958L30.531 357.981L30.3172 358.038L30.2303 358.061L29.9559 358.138L29.864 358.164L29.6558 358.225L29.5631 358.253L29.3482 358.318L29.2684 358.343L28.9957 358.43L28.9033 358.461L28.7116 358.525L28.6055 358.561L28.3704 358.642L28.3072 358.665L28.0607 358.754L27.9518 358.794L27.7687 358.863L27.6726 358.899L27.4134 359L27.3127 359.04L27.1363 359.111L27.0306 359.155L26.8478 359.231L26.7475 359.273L26.5003 359.38L26.3966 359.426L26.23 359.5L26.1113 359.554L25.9422 359.632L25.8288 359.685L25.6059 359.791L25.4908 359.847L25.3396 359.921L25.2254 359.978L25.0273 360.078L24.8886 360.15L24.7293 360.233L24.613 360.295L24.4575 360.378L24.3562 360.433L24.1244 360.561L24.0094 360.626L23.8705 360.705L23.7481 360.776L23.6165 360.852L23.4195 360.969L23.286 361.049L23.1413 361.138L23.0445 361.198L22.9013 361.287L22.7982 361.352L22.5609 361.505L22.4597 361.571L22.323 361.661L22.2239 361.727L22.0784 361.825L22.0755 361.827C21.9633 361.904 21.8518 361.981 21.7408 362.059L21.6572 362.118L21.5079 362.224L21.4399 362.273C21.3402 362.345 21.2414 362.418 21.1428 362.491L21.0962 362.525L20.9545 362.632L20.8727 362.694L20.7344 362.8L20.6455 362.869L20.4167 363.049L20.3235 363.124L20.1931 363.229L20.107 363.299L19.9703 363.412L19.9369 363.439C19.8381 363.522 19.7397 363.605 19.6419 363.689L19.5807 363.741L19.4445 363.859L19.3701 363.925C19.2158 364.06 19.0634 364.198 18.9121 364.337L18.8647 364.38L18.7165 364.518L18.6764 364.556C18.5209 364.702 18.367 364.851 18.2147 365.001L18.1626 365.052L18.0183 365.196L18.0112 365.203C17.902 365.313 17.7941 365.424 17.6868 365.535L17.6803 365.542L17.5296 365.7L17.4958 365.736C17.3431 365.898 17.1923 366.062 17.0436 366.228L17.0212 366.253L16.8725 366.42L16.8594 366.435C16.7081 366.608 16.5585 366.781 16.4114 366.958L16.391 366.982C16.2403 367.163 16.0917 367.345 15.9455 367.53L15.9449 367.531L15.8112 367.701L15.7799 367.741C15.643 367.917 15.5081 368.095 15.3755 368.275L15.355 368.302L15.2248 368.481L15.2078 368.504C15.0762 368.687 14.9462 368.871 14.8188 369.057L14.7937 369.093C14.6212 369.346 14.4527 369.601 14.2883 369.86L14.2575 369.908C14.0945 370.166 13.9355 370.427 13.781 370.69L13.7541 370.736C13.6395 370.932 13.5273 371.13 13.4173 371.329L13.4104 371.342L13.2984 371.546L13.2926 371.557C13.1836 371.759 13.0775 371.962 12.9738 372.166L12.9495 372.215C12.8471 372.418 12.747 372.622 12.6494 372.828L12.6387 372.851L12.5484 373.044L12.5383 373.065H12.5385C10.9319 376.541 10.034 380.405 10.034 384.468V388.055H8.67582C3.88411 388.055 0 391.939 0 396.731V413.266C0 418.057 3.88431 421.941 8.67582 421.941H295.322C300.113 421.941 303.998 418.057 303.998 413.266V396.731C303.998 391.939 300.113 388.055 295.322 388.055H293.391V384.468C293.391 369.744 281.606 357.639 267.002 357.119C266.956 353.267 266.743 349.434 266.376 345.625C266.343 345.278 266.308 344.932 266.272 344.586C266.129 343.203 265.965 341.823 265.781 340.446C265.643 339.414 265.494 338.384 265.334 337.355C265.227 336.67 265.116 335.986 265 335.302C264.36 331.544 263.575 327.816 262.657 324.126C262.51 323.534 262.359 322.944 262.205 322.354C262.112 321.999 262.018 321.644 261.923 321.289C261.832 320.952 261.74 320.615 261.648 320.278C261.612 320.15 261.577 320.022 261.541 319.894C261.449 319.562 261.355 319.231 261.26 318.899C261.157 318.536 261.051 318.172 260.945 317.809C260.85 317.485 260.754 317.162 260.657 316.838C260.616 316.7 260.574 316.562 260.532 316.423C260.436 316.105 260.338 315.787 260.24 315.469C260.201 315.344 260.162 315.219 260.123 315.093C256.505 303.505 251.611 292.361 245.801 281.886L245.693 281.692C244.833 280.146 243.952 278.614 243.054 277.098C242.856 276.764 242.657 276.431 242.457 276.099C242.299 275.834 242.139 275.571 241.979 275.307C241.892 275.163 241.804 275.019 241.716 274.876C241.423 274.396 241.128 273.918 240.832 273.441C240.657 273.161 240.483 272.882 240.307 272.604C239.884 271.932 239.457 271.263 239.027 270.598C238.802 270.251 238.577 269.905 238.351 269.559C238.071 269.132 237.789 268.706 237.506 268.282C237.113 267.693 236.718 267.107 236.32 266.523C236.199 266.346 236.078 266.169 235.956 265.993C235.302 265.039 234.64 264.094 233.971 263.156C233.442 262.414 232.909 261.676 232.371 260.944C232.058 260.516 231.743 260.091 231.427 259.667C231.197 259.359 230.967 259.053 230.736 258.747C230.408 258.312 230.078 257.878 229.746 257.446C229.662 257.337 229.578 257.228 229.495 257.119C229.268 256.826 229.041 256.533 228.814 256.242C228.359 255.658 227.902 255.079 227.442 254.502C227.212 254.214 226.981 253.927 226.75 253.641L226.547 253.389C225.893 252.581 225.234 251.78 224.571 250.987L224.446 250.838C223.858 250.135 223.266 249.438 222.671 248.747C222.274 248.287 221.876 247.829 221.476 247.373C221.277 247.146 221.077 246.919 220.876 246.693C220.475 246.24 220.073 245.79 219.669 245.343L219.573 245.236C218.852 244.438 218.127 243.649 217.398 242.869L217.334 242.801C217.149 242.603 216.964 242.405 216.779 242.209C216.222 241.618 215.663 241.033 215.102 240.453C214.94 240.286 214.778 240.119 214.616 239.952C211.777 237.037 208.887 234.258 205.965 231.624C205.433 231.146 204.901 230.672 204.368 230.202C203.834 229.733 203.3 229.269 202.765 228.81C200.624 226.973 198.469 225.215 196.307 223.542C196.037 223.332 195.766 223.124 195.496 222.918C193.603 221.472 191.705 220.09 189.807 218.775C189.536 218.587 189.265 218.401 188.994 218.216C188.673 217.997 188.351 217.779 188.03 217.564C187.628 217.294 187.226 217.028 186.825 216.765C186.423 216.502 186.021 216.241 185.62 215.984C185.138 215.676 184.657 215.372 184.176 215.072C183.855 214.873 183.534 214.675 183.214 214.48C182.573 214.089 181.932 213.705 181.293 213.33C181.185 213.267 181.08 213.203 180.976 213.137C180.872 213.071 180.769 213.004 180.668 212.935L180.519 212.831L180.289 212.664L180.117 212.532L180.057 212.485L179.807 212.282L179.555 212.061C179.419 211.939 179.287 211.813 179.159 211.685L179.034 211.557L178.805 211.312L178.67 211.158C178.572 211.045 178.477 210.93 178.384 210.814L178.327 210.74C178.246 210.635 178.167 210.53 178.09 210.423L178.009 210.308C177.732 209.91 177.486 209.496 177.27 209.069L177.185 208.898C177.019 208.553 176.873 208.2 176.746 207.842L176.684 207.662C175.624 204.479 176.104 200.855 178.125 198.071C178.24 197.914 178.359 197.759 178.483 197.607L178.67 197.385L178.701 197.349C178.807 197.227 178.918 197.107 179.031 196.989L179.159 196.858C179.776 196.24 180.487 195.685 181.293 195.213C217.302 174.11 255.728 126.984 264.943 73.5729C265.052 72.9401 265.157 72.3061 265.258 71.6715C265.312 71.3331 265.364 70.9945 265.416 70.6558C265.47 70.3022 265.522 69.9484 265.573 69.5945C265.689 68.7885 265.799 67.9812 265.902 67.1726C265.955 66.7526 266.007 66.3322 266.056 65.9116L266.076 65.7427C266.111 65.442 266.145 65.1409 266.178 64.8398C281.16 64.7558 293.391 52.4739 293.391 37.4734V33.887H295.323C300.114 33.887 303.999 30.0025 303.999 25.2112V8.67639C303.999 3.8855 300.114 0.00117895 295.323 0.00117895Z" fill="#CDE8F5"/>
<path d="M295.324 0.00117895H294.71L294.705 0.000976562H290.71L8.67778 0.00117895C3.88607 0.00117895 0.00195312 3.88549 0.00195312 8.677V24.5927C0.00195312 29.7261 4.16329 33.8876 9.29661 33.8876H10.0361V37.474C10.0361 41.5376 10.934 45.4012 12.5406 48.8773L12.5404 48.8771L12.5481 48.8937L12.6425 49.0956L12.6453 49.1015C12.7458 49.3137 12.8488 49.5243 12.9543 49.7333L12.9728 49.7695C13.1147 50.0496 13.2613 50.3268 13.4124 50.6012L13.4191 50.6133C13.5304 50.8156 13.6446 51.0161 13.7609 51.2151L13.7801 51.2477C13.9371 51.515 14.0982 51.7791 14.2637 52.0405L14.2862 52.0762C14.453 52.3388 14.6241 52.5984 14.7997 52.8548L14.8153 52.8776C14.9449 53.0666 15.0765 53.2537 15.2106 53.4392L15.2266 53.4617L15.3606 53.6451L15.3679 53.6552C15.5056 53.8419 15.6455 54.0266 15.7877 54.2095L15.8075 54.235C15.9987 54.4802 16.1937 54.7224 16.3927 54.9609L16.4128 54.985C16.5602 55.1612 16.7097 55.3356 16.8615 55.5081L16.8741 55.5225L17.0227 55.6897L17.0442 55.7136C17.1934 55.8799 17.3445 56.0441 17.4974 56.2065L17.5312 56.2424L17.6818 56.4005L17.6883 56.4072C17.8453 56.5706 18.0042 56.7318 18.1652 56.8914L18.2162 56.9418C18.3685 57.0918 18.5224 57.2401 18.6779 57.3867L18.718 57.4245L18.8663 57.5624L18.9136 57.606C19.0679 57.7479 19.2239 57.8878 19.3812 58.0262L19.4391 58.0772L19.5882 58.2066L19.6315 58.2436C19.7332 58.3309 19.8356 58.4174 19.9385 58.503L19.9719 58.531L20.1163 58.6496L20.1855 58.7063L20.3303 58.8234L20.3884 58.8698L20.6545 59.0793L20.7359 59.1427L20.8742 59.2486L20.956 59.3108L21.0978 59.4175L21.1444 59.4519C21.243 59.5252 21.3418 59.5977 21.4414 59.6696L21.5095 59.7186L21.6587 59.8249L21.7423 59.8837C21.8533 59.9618 21.9649 60.0392 22.0771 60.1155L22.0799 60.1174L22.2342 60.2212L22.317 60.2767L22.4618 60.3725L22.5625 60.4381L22.7998 60.5906L22.9028 60.656L23.046 60.7453L23.1428 60.805L23.2876 60.8937L23.3826 60.9506L23.6258 61.0952L23.7495 61.1675L23.8718 61.238L24.0107 61.317L24.1257 61.382L24.3515 61.5069L24.4738 61.5731L24.6071 61.6448L24.7318 61.7108L24.8898 61.7932L25.0285 61.8647L25.2265 61.9649L25.3407 62.0216L25.492 62.096L25.607 62.1519L25.7931 62.2405L25.9577 62.3177L26.1108 62.3882L26.2382 62.4459L26.3887 62.5131L26.5018 62.5633L26.7485 62.6698L26.8574 62.7158L27.0249 62.7857L27.1397 62.8328L27.3141 62.9033L27.4147 62.9436L27.6739 63.0443L27.7701 63.0809L27.9531 63.1496L28.0621 63.1899L28.3085 63.2787L28.3717 63.3012L28.6068 63.3828L28.7129 63.4187L28.9047 63.4827L28.997 63.513L29.2698 63.6003L29.3496 63.6248L29.5644 63.6904L29.6572 63.7182L29.8653 63.7791L29.9573 63.8057L30.2317 63.8822L30.3185 63.9057L30.5324 63.9624L30.6227 63.9861L30.889 64.0531L30.9173 64.0604L31.2026 64.1286L31.3053 64.1523L31.5185 64.2003L31.6001 64.2183C31.6994 64.24 31.799 64.2613 31.8984 64.2817L31.9403 64.2902L32.1931 64.3407L32.2915 64.3595L32.5235 64.4028L32.5948 64.4158C32.694 64.4334 32.7933 64.4506 32.8927 64.4674L32.9644 64.4792L33.1978 64.5166L33.2961 64.5318L33.5419 64.5681L33.6006 64.5766C33.7 64.5905 33.7999 64.6039 33.8997 64.6169L33.9864 64.6278L34.2233 64.6565L34.3019 64.6659C34.4055 64.6776 34.509 64.6889 34.6129 64.6997L34.6332 64.7017L34.9195 64.729L35.0124 64.7373L35.252 64.7572L35.3287 64.7633C35.432 64.7712 35.5355 64.7785 35.6394 64.7851L35.6963 64.7886L35.9534 64.8034L36.0452 64.808L36.3121 64.82L36.3611 64.822C36.4649 64.8258 36.569 64.8291 36.6731 64.8319L36.7565 64.8337L37.0001 64.8384L37.0866 64.8396L37.2618 64.841L37.4037 64.8416H266.026L266.18 64.8406C281.162 64.7566 293.393 52.4747 293.393 37.4742V33.8878H295.325C300.116 33.8878 304 30.0033 304 25.212V8.6772C304 3.88549 300.115 0.00117895 295.324 0.00117895Z" fill="#BB8F78"/>
<path d="M294.704 388.056H293.392V384.47C293.392 369.746 281.607 357.641 267.004 357.12C266.679 357.109 266.352 357.103 266.025 357.103H37.403C37.2971 357.103 37.1914 357.103 37.0857 357.105L36.9992 357.106L36.7556 357.11L36.6722 357.112L36.4241 357.12L36.3599 357.122L36.3109 357.124L36.044 357.136L35.9523 357.141L35.6951 357.156L35.6382 357.159C35.5345 357.166 35.4309 357.173 35.3276 357.181L35.2508 357.187L35.0113 357.207L34.9183 357.215L34.632 357.243L34.6118 357.245C34.5081 357.255 34.4044 357.267 34.3007 357.279L34.2222 357.288L33.9852 357.317L33.8986 357.328C33.7987 357.34 33.6989 357.354 33.5995 357.368L33.5407 357.376L33.2949 357.413L33.1967 357.428L32.9632 357.465L32.8915 357.477C32.7921 357.494 32.6929 357.511 32.5937 357.529L32.5224 357.542L32.2903 357.585L32.1919 357.604L31.9392 357.655L31.8973 357.663C31.7978 357.684 31.6982 357.705 31.599 357.727L31.5174 357.745L31.3042 357.793L31.2015 357.816L30.9162 357.885L30.8878 357.892L30.6215 357.959L30.5312 357.982L30.3174 358.039L30.2305 358.062L29.9561 358.139L29.8642 358.165L29.656 358.226L29.5633 358.254L29.3484 358.32L29.2686 358.344L28.9959 358.432L28.9035 358.462L28.7118 358.526L28.6057 358.562L28.3706 358.644L28.3074 358.666L28.0609 358.755L27.952 358.795L27.7689 358.864L27.6728 358.9L27.4136 359.001L27.3129 359.041L27.1365 359.113L27.0308 359.156L26.848 359.232L26.7477 359.274L26.5005 359.381L26.3968 359.427L26.2302 359.502L26.1115 359.555L25.9424 359.633L25.829 359.686L25.6061 359.793L25.491 359.848L25.3398 359.923L25.2256 359.979L25.0275 360.08L24.8888 360.151L24.7295 360.234L24.6132 360.296L24.4577 360.379L24.3565 360.434L24.1246 360.562L24.0096 360.627L23.8707 360.706L23.7483 360.777L23.6167 360.854L23.4197 360.97L23.2863 361.05L23.1415 361.139L23.0447 361.199L22.9015 361.288L22.7984 361.354L22.5611 361.506L22.4599 361.572L22.3232 361.662L22.2242 361.728L22.0786 361.827L22.0757 361.828C21.9635 361.905 21.852 361.982 21.741 362.06L21.6574 362.119L21.5081 362.225L21.4401 362.275C21.3404 362.346 21.2416 362.419 21.143 362.492L21.0964 362.526L20.9547 362.633L20.8729 362.695L20.7346 362.801L20.6457 362.87L20.4169 363.05L20.3237 363.125L20.1933 363.23L20.1072 363.3L19.9705 363.413L19.9371 363.441C19.8383 363.523 19.7399 363.606 19.6421 363.69L19.5809 363.742L19.4447 363.861L19.3703 363.926C19.216 364.062 19.0636 364.199 18.9123 364.338L18.8649 364.382L18.7167 364.519L18.6766 364.557C18.5211 364.704 18.3672 364.852 18.2149 365.002L18.1628 365.054L18.0185 365.197L18.0114 365.204C17.9022 365.314 17.7943 365.425 17.687 365.537L17.6805 365.543L17.5298 365.701L17.496 365.737C17.3433 365.899 17.1925 366.063 17.0438 366.229L17.0214 366.254L16.8727 366.421L16.8596 366.436C16.7083 366.609 16.5587 366.783 16.4116 366.959L16.3912 366.983C16.2405 367.164 16.0919 367.347 15.9457 367.531L15.9451 367.532L15.8114 367.702L15.7801 367.742C15.6432 367.918 15.5083 368.096 15.3757 368.276L15.3552 368.304L15.225 368.482L15.208 368.505C15.0764 368.688 14.9464 368.872 14.819 369.058L14.7939 369.095C14.6214 369.347 14.4529 369.603 14.2885 369.861L14.2577 369.91C14.0947 370.167 13.9357 370.428 13.7812 370.691L13.7543 370.737C13.6397 370.933 13.5275 371.131 13.4175 371.33L13.4106 371.343L13.2986 371.548L13.2928 371.558C13.184 371.76 13.0779 371.963 12.974 372.168L12.9497 372.216C12.8473 372.419 12.7472 372.623 12.6496 372.829L12.6389 372.852L12.5486 373.045L12.5385 373.066H12.5387C10.9321 376.543 10.0342 380.406 10.0342 384.47V388.056H9.29466C4.16133 388.056 0 392.218 0 397.351V413.267C0 418.058 3.88432 421.942 8.67582 421.942H294.703C299.836 421.942 303.998 417.781 303.998 412.648V397.351C303.999 392.218 299.838 388.056 294.704 388.056Z" fill="#BB8F78"/>
<path d="M201.513 293.612C197.767 292.488 194.173 291.304 190.685 290.065C190.263 289.915 189.843 289.764 189.424 289.613C188.792 289.384 188.163 289.154 187.538 288.921C176.666 284.885 166.737 280.307 156.361 275.34C155.648 274.998 154.932 274.655 154.214 274.31C153.495 273.964 152.774 273.617 152.05 273.268C150.964 272.745 149.872 272.218 148.771 271.687C145.467 270.095 142.089 268.469 138.595 266.814C133.397 264.586 127.258 265.22 122.058 267.099C120.421 267.691 118.864 268.437 117.355 269.274L117.356 269.273C114.678 270.76 112.156 272.536 109.617 274.255C98.5784 281.731 87.8928 289.616 79.2856 299.914C70.5029 310.22 63.5455 322.217 59.5135 335.172C58.257 339.209 57.0467 343.654 56.5067 348.104C56.1377 351.145 56.0818 354.187 56.5384 357.103H240.052C242.941 329.717 224.627 301.317 201.513 293.612Z" fill="#EDD5A1"/>
<path d="M201.513 293.612C197.768 292.488 194.173 291.304 190.685 290.065C190.263 289.915 189.843 289.764 189.424 289.613C188.792 289.384 188.164 289.154 187.538 288.921C176.666 284.885 166.737 280.307 156.362 275.34C155.648 274.998 154.932 274.655 154.214 274.31C153.495 273.964 152.774 273.617 152.051 273.268C150.965 272.745 149.872 272.218 148.771 271.687C145.468 270.095 142.09 268.469 138.595 266.814C133.398 264.586 127.258 265.22 122.059 267.099C120.421 267.691 118.864 268.437 117.356 269.274C101.517 289.923 89.1258 314.448 84.275 340.792C83.2435 346.394 78.3762 350.409 72.7656 350.409C72.4732 350.409 72.1778 350.398 71.8817 350.376L61.414 349.591C59.6203 349.456 57.9606 348.928 56.5067 348.103C56.1377 351.144 56.0818 354.187 56.5384 357.103H240.052C242.941 329.717 224.627 301.317 201.513 293.612Z" fill="#DDB34A"/>
<path d="M209.066 154.787C214.6 148.634 219.668 141.867 223.985 134.653C223.363 134.184 222.73 133.73 222.087 133.292C201.927 119.541 171.681 120.741 148.503 130.978C146.759 131.749 144.144 130.978 142.4 130.978H142.4C132.175 126.266 120.138 125.161 108.716 127.354L108.715 127.354C99.4521 129.132 90.594 133.079 83.4316 139.03C92.2241 152.265 106.306 166.049 119.71 176.146H119.71C125.548 180.544 131.257 184.242 136.344 186.89C139.289 188.423 138.76 195.111 138.579 197.709C138.296 201.754 141.017 205.316 145.315 205.962C147.245 206.253 149.611 206.059 150.705 207.676C151.459 208.791 151.209 210.286 151.569 211.583C151.867 212.659 152.639 213.57 153.612 214.115C154.26 214.477 154.996 214.677 155.74 214.653C156.512 214.629 157.288 214.392 158.048 214.533C158.936 214.697 159.868 215.356 160.65 214.905C160.977 214.716 161.177 214.371 161.362 214.041C161.468 213.852 161.574 213.663 161.68 213.473C162.113 212.702 162.545 211.931 162.978 211.16C163.689 209.89 164.407 208.607 164.824 207.213C165.176 206.036 165.305 204.806 165.433 203.585C165.787 200.193 165.963 196.817 166.26 193.428C166.292 193.065 166.322 192.635 166.364 192.17C166.54 190.243 166.925 187.715 168.518 186.89C176.166 182.932 186.362 175.657 195.479 167.846C200.551 163.499 205.288 158.987 209.066 154.787Z" fill="#EDD5A1"/>
<path d="M209.067 154.787C214.601 148.634 219.669 141.867 223.986 134.653C223.364 134.184 222.731 133.73 222.088 133.292C201.928 119.541 171.683 120.741 148.504 130.978C146.76 131.749 144.145 130.978 142.402 130.978H142.401C132.176 126.266 120.14 125.161 108.717 127.354C114.671 136.952 121.367 145.903 128.487 154.017C135.808 162.36 130.433 175.257 119.711 176.146C125.549 180.544 131.259 184.242 136.346 186.89C139.29 188.423 138.761 195.111 138.58 197.709C138.297 201.754 141.018 205.316 145.316 205.962C147.246 206.253 149.612 206.059 150.706 207.676C151.46 208.791 151.21 210.286 151.57 211.583C151.869 212.659 152.641 213.57 153.613 214.115C154.261 214.477 154.997 214.677 155.741 214.653C156.514 214.629 157.289 214.392 158.049 214.533C158.937 214.697 159.869 215.356 160.652 214.905C160.979 214.716 161.178 214.371 161.363 214.041C161.469 213.852 161.575 213.663 161.682 213.473C162.114 212.702 162.547 211.931 162.979 211.16C163.691 209.89 164.408 208.607 164.825 207.213C165.177 206.036 165.306 204.806 165.434 203.585C165.788 200.193 165.964 196.817 166.261 193.428C166.293 193.065 166.323 192.635 166.365 192.17C166.541 190.243 166.926 187.715 168.519 186.89C176.167 182.932 186.364 175.657 195.48 167.846C200.552 163.499 205.289 158.987 209.067 154.787Z" fill="#DDB34A"/>
<path d="M36.7549 357.109L36.9985 357.104L37.085 357.103C37.1907 357.102 37.2964 357.101 37.4023 357.101H56.5379C56.0813 354.186 56.1372 351.143 56.5062 348.102C52.1739 345.643 49.6656 340.541 50.8567 335.315C59.9816 295.28 86.1895 259.898 114.644 236.612C116.752 234.887 119.383 233.952 122.089 233.952C122.38 233.952 122.673 233.962 122.965 233.984C132.767 234.719 137.395 246.501 130.652 253.654C126.027 258.56 121.57 263.778 117.356 269.272L117.355 269.273C118.863 268.435 120.421 267.69 122.058 267.098C127.258 265.218 133.397 264.585 138.595 266.812C144.807 269.754 150.652 272.605 156.361 275.338C166.736 280.305 176.666 284.884 187.538 288.92C188.163 289.152 188.792 289.383 189.424 289.611C189.842 289.763 190.262 289.913 190.684 290.063C194.172 291.302 197.767 292.487 201.512 293.61C224.626 301.315 242.941 329.716 240.052 357.101H247.145C246.388 295.008 202.527 237.539 161.681 213.475C161.574 213.664 161.468 213.854 161.362 214.043C161.178 214.372 160.978 214.717 160.651 214.906C159.868 215.358 158.936 214.699 158.048 214.535C157.288 214.394 156.513 214.631 155.74 214.655C154.996 214.678 154.26 214.479 153.612 214.116C152.64 213.572 151.868 212.661 151.569 211.585C151.209 210.288 151.459 208.793 150.705 207.678C149.611 206.061 147.245 206.254 145.315 205.964C141.017 205.318 138.296 201.756 138.579 197.711C138.76 195.112 139.289 188.425 136.345 186.892C131.258 184.244 125.548 180.546 119.71 176.148C119.323 176.18 118.93 176.196 118.529 176.196C115.224 176.196 112.035 174.978 109.585 172.761C86.7071 152.058 65.6724 122.471 55.2553 89.26C52.8881 81.7125 58.5317 74.0334 66.4417 74.0334H77.3205C82.5438 74.0334 87.1317 77.4925 88.5693 82.514C93.1259 98.4217 100.155 113.557 108.716 127.356L108.716 127.356C120.139 125.163 132.175 126.268 142.4 130.98H142.401C144.144 130.98 146.759 131.75 148.503 130.98C171.682 120.743 201.927 119.543 222.088 133.293C234.559 112.776 243.619 89.3451 246.321 64.8414H37.4025L37.2605 64.8408C43.6398 121.802 84.9622 172.967 122.711 195.213C129.567 199.254 129.567 209.291 122.711 213.331C82.0195 237.311 37.1755 294.895 36.4238 357.119L36.6719 357.111L36.7549 357.109Z" fill="#E0F2FA"/>
<path d="M201.513 293.61C197.767 292.487 194.172 291.302 190.684 290.063C190.262 289.913 189.842 289.763 189.423 289.611C188.791 289.382 188.163 289.152 187.537 288.92C176.666 284.883 166.736 280.305 156.361 275.338C150.651 272.605 144.806 269.754 138.595 266.812C133.738 264.731 127.648 265.14 122.28 267.033C122.253 272.87 121.146 281.973 123.448 283.124C131.142 286.675 137.334 289.625 142.48 293.96L142.692 293.875C142.855 294.075 142.999 294.289 143.124 294.515C147.81 298.641 151.617 304.028 154.906 312.253C159.567 326.234 181.705 314.583 194.521 316.913C207.338 319.244 208.503 341.381 206.173 355.363C206.07 355.946 205.956 356.525 205.831 357.101H240.051C242.94 329.716 224.626 301.315 201.513 293.61Z" fill="#C39E32"/>
<path d="M148.503 130.978C146.759 131.749 144.144 130.978 142.4 130.978C157.294 137.118 171.906 145.748 187.361 150.762C187.537 150.819 187.713 150.876 187.889 150.932C188.592 151.156 189.297 151.373 190.004 151.581C190.535 151.737 191.066 151.889 191.598 152.036C192.308 152.231 193.02 152.419 193.734 152.597C194.091 152.685 194.448 152.772 194.807 152.857C195.164 152.941 195.523 153.023 195.882 153.102C196.241 153.182 196.601 153.259 196.961 153.333C197.892 153.526 198.826 153.701 199.763 153.859C200.068 153.911 200.373 153.96 200.678 154.007C202.783 154.334 204.909 154.568 207.057 154.697C207.725 154.737 208.394 154.767 209.066 154.786C214.6 148.633 219.668 141.867 223.985 134.653C223.363 134.184 222.73 133.73 222.087 133.291C201.927 119.541 171.682 120.741 148.503 130.978Z" fill="#C39E32"/>
<path d="M294.71 0.00117895L294.705 0.000976562H290.71V11.58C290.71 16.7133 286.549 20.8749 281.416 20.8749H0.00195312V24.5927C0.00195312 29.7261 4.16328 33.8876 9.29661 33.8876H277.954C273.959 44.0722 264.016 51.3324 252.459 51.3324H23.8372C19.8152 51.3324 15.989 50.4529 12.5406 48.8771L12.5404 48.8769L12.5481 48.8935L12.6425 49.0954L12.6453 49.1013C12.7458 49.3135 12.8488 49.5241 12.9543 49.7331L12.9728 49.7693C13.1147 50.0494 13.2613 50.3266 13.4124 50.601L13.4191 50.6131C13.5304 50.8154 13.6446 51.0159 13.7609 51.2149L13.7801 51.2475C13.937 51.5148 14.0982 51.7789 14.2637 52.0403L14.2862 52.076C14.453 52.3386 14.6241 52.5982 14.7997 52.8546L14.8153 52.8774C14.9449 53.0664 15.0765 53.2535 15.2106 53.439L15.2266 53.4615L15.3606 53.6449L15.3679 53.655C15.5056 53.8417 15.6455 54.0264 15.7877 54.2093L15.8075 54.2348C15.9987 54.48 16.1937 54.7222 16.3927 54.9607L16.4128 54.9848C16.5602 55.161 16.7097 55.3354 16.8615 55.5079L16.8741 55.5223L17.0227 55.6895L17.0442 55.7134C17.1934 55.8797 17.3445 56.0439 17.4974 56.2063L17.5312 56.2422L17.6818 56.4003L17.6883 56.407C17.8453 56.5704 18.0042 56.7316 18.1652 56.8912L18.2162 56.9416C18.3685 57.0916 18.5224 57.2399 18.6779 57.3865L18.718 57.4243L18.8663 57.5622L18.9136 57.6058C19.0679 57.7477 19.2239 57.8877 19.3812 58.026L19.4391 58.077L19.5882 58.2064L19.6315 58.2434C19.7331 58.3307 19.8356 58.4172 19.9385 58.5028L19.9719 58.5308L20.1163 58.6494L20.1855 58.7061L20.3303 58.8232L20.3884 58.8696L20.6545 59.0792L20.7359 59.1425L20.8742 59.2484L20.956 59.3106L21.0978 59.4173L21.1444 59.4517C21.243 59.5251 21.3418 59.5975 21.4414 59.6694L21.5095 59.7184L21.6587 59.8247L21.7423 59.8835C21.8533 59.9616 21.9649 60.039 22.0771 60.1153L22.0799 60.1172L22.2342 60.221L22.317 60.2765L22.4618 60.3723L22.5625 60.4379L22.7998 60.5904L22.9029 60.6558L23.046 60.7451L23.1428 60.8048L23.2876 60.8935L23.3826 60.9504L23.6258 61.095L23.7495 61.1673L23.8718 61.2378L24.0107 61.3167L24.1257 61.3818L24.3515 61.5067L24.4738 61.5729L24.6071 61.6446L24.7318 61.7106L24.8898 61.793L25.0285 61.8645L25.2265 61.9647L25.3407 62.0214L25.492 62.0958L25.607 62.1517L25.7931 62.2403L25.9577 62.3175L26.1108 62.388L26.2382 62.4457L26.3887 62.5129L26.5018 62.5631L26.7485 62.6696L26.8574 62.7156L27.0249 62.7855L27.1397 62.8327L27.3141 62.9031L27.4147 62.9434L27.6739 63.0441L27.7701 63.0807L27.9531 63.1494L28.0621 63.1897L28.3085 63.2786L28.3717 63.301L28.6068 63.3826L28.7129 63.4185L28.9047 63.4825L28.997 63.5128L29.2698 63.6001L29.3496 63.6246L29.5644 63.6902L29.6572 63.718L29.8653 63.7789L29.9573 63.8055L30.2317 63.882L30.3185 63.9055L30.5324 63.9622L30.6227 63.9859L30.889 64.0529L30.9173 64.0602L31.2026 64.1284L31.3053 64.1521L31.5185 64.2001L31.6001 64.2181C31.6994 64.2398 31.799 64.2611 31.8984 64.2815L31.9403 64.29L32.1931 64.3405L32.2915 64.3593L32.5235 64.4026L32.5948 64.4156C32.694 64.4332 32.7933 64.4504 32.8927 64.4672L32.9644 64.479L33.1978 64.5164L33.2961 64.5316L33.5419 64.5679L33.6006 64.5764C33.7 64.5903 33.7999 64.6037 33.8997 64.6167L33.9864 64.6276L34.2233 64.6563L34.3019 64.6657C34.4055 64.6774 34.509 64.6888 34.6129 64.6995L34.6331 64.7015L34.9195 64.7288L35.0124 64.7371L35.252 64.757L35.3287 64.7631C35.432 64.771 35.5355 64.7783 35.6394 64.7849L35.6963 64.7884L35.9534 64.8032L36.0452 64.8078L36.3121 64.8198L36.3611 64.8218C36.465 64.8256 36.569 64.8289 36.6731 64.8317L36.7565 64.8335L37.0001 64.8382L37.0866 64.8394L37.2618 64.8408L37.4037 64.8414H266.026L266.18 64.8404H266.18C281.162 64.7564 293.393 52.4745 293.393 37.474V33.8876H294.706C299.839 33.8876 304 29.7261 304 24.5927V9.29583C304 4.16433 299.841 0.00401392 294.71 0.00117895Z" fill="#AA7D65"/>
<path d="M266.025 357.103H37.4035C37.2976 357.103 37.1919 357.103 37.0862 357.105L36.9997 357.106L36.7561 357.11L36.6727 357.112L36.4247 357.12L36.3605 357.122L36.3115 357.124L36.0446 357.136L35.9528 357.141L35.6957 357.156L35.6388 357.159C35.5351 357.166 35.4314 357.173 35.3281 357.181L35.2514 357.187L35.0118 357.207L34.9189 357.215L34.6325 357.243L34.6123 357.245C34.5086 357.255 34.4049 357.267 34.3013 357.279L34.2227 357.288L33.9858 357.317L33.8991 357.328C33.7993 357.34 33.6994 357.354 33.6 357.368L33.5413 357.376L33.2955 357.413L33.1972 357.428L32.9638 357.465L32.8921 357.477C32.7926 357.494 32.6934 357.511 32.5942 357.529L32.5229 357.542L32.2909 357.585L32.1924 357.604L31.9397 357.655L31.8978 357.663C31.7984 357.684 31.6988 357.705 31.5995 357.727L31.5179 357.745L31.3047 357.793L31.202 357.816L30.9167 357.885L30.8884 357.892L30.6221 357.959L30.5318 357.982L30.3179 358.039L30.2311 358.062L29.9567 358.139L29.8647 358.165L29.6566 358.226L29.5638 358.254L29.349 358.32L29.2692 358.344L28.9964 358.432L28.9041 358.462L28.7123 358.526L28.6062 358.562L28.3711 358.644L28.3079 358.666L28.0615 358.755L27.9525 358.795L27.7695 358.864L27.6733 358.9L27.4141 359.001L27.3135 359.041L27.1371 359.113L27.0314 359.156L26.8485 359.232L26.7483 359.274L26.501 359.381L26.3974 359.427L26.2307 359.502L26.112 359.555L25.943 359.633L25.8295 359.686L25.6066 359.793L25.4916 359.848L25.3403 359.923L25.2261 359.979L25.0281 360.08L24.8894 360.151L24.73 360.234L24.6138 360.296L24.4582 360.379L24.357 360.434L24.1251 360.562L24.0101 360.627L23.8712 360.706L23.7489 360.777L23.6173 360.854L23.4202 360.97L23.2868 361.05L23.142 361.139L23.0452 361.199L22.902 361.288L22.799 361.354L22.5616 361.506L22.4604 361.572L22.3237 361.662L22.2247 361.728L22.0791 361.827L22.0763 361.828C21.9641 361.905 21.8525 361.982 21.7415 362.06L21.6579 362.119L21.5087 362.225L21.4406 362.275C21.341 362.346 21.2422 362.419 21.1435 362.492L21.097 362.526L20.9552 362.633L20.8734 362.695L20.7351 362.801L20.6462 362.87L20.4174 363.051L20.3242 363.125L20.1938 363.23L20.1078 363.3L19.9711 363.413L19.9377 363.441C19.8389 363.523 19.7404 363.606 19.6426 363.69L19.5815 363.742L19.4452 363.861L19.3709 363.926C19.2166 364.062 19.0641 364.199 18.9128 364.338L18.8654 364.382L18.7172 364.519L18.6771 364.557C18.5216 364.704 18.3677 364.852 18.2154 365.002L18.1634 365.054L18.019 365.197L18.0119 365.204C17.9028 365.314 17.7948 365.425 17.6875 365.537L17.681 365.543L17.5304 365.701L17.4966 365.737C17.3439 365.899 17.193 366.063 17.0444 366.229L17.0219 366.254L16.8733 366.421L16.8601 366.436C16.7088 366.609 16.5592 366.783 16.4122 366.959L16.3917 366.983C16.2411 367.164 16.0924 367.347 15.9462 367.531L15.9456 367.532L15.812 367.702L15.7806 367.742C15.6437 367.918 15.5088 368.096 15.3762 368.276L15.3558 368.304L15.2255 368.482L15.2085 368.505C15.0769 368.688 14.9469 368.872 14.8195 369.058L14.7944 369.095C14.6219 369.347 14.4534 369.603 14.289 369.861L14.2582 369.91C14.0952 370.167 13.9362 370.428 13.7817 370.691L13.7548 370.737C13.6402 370.933 13.528 371.131 13.418 371.33L13.4112 371.343L13.2992 371.548L13.2933 371.558C13.1846 371.76 13.0785 371.963 12.9746 372.168L12.9503 372.216C12.8478 372.419 12.7478 372.623 12.6502 372.829L12.6394 372.852L12.5491 373.045L12.539 373.066H12.5392C15.9875 371.491 19.8139 370.611 23.8358 370.611H252.458C264.014 370.611 273.958 377.872 277.952 388.056H9.29661C4.16328 388.056 0.00195312 392.217 0.00195312 397.351V401.069H281.416C286.549 401.069 290.71 405.23 290.71 410.364V421.942H294.705C299.839 421.942 304 417.781 304 412.648V397.351C304 392.218 299.838 388.056 294.705 388.056H293.393V384.47C293.393 369.745 281.608 357.64 267.004 357.12C266.679 357.109 266.353 357.103 266.025 357.103Z" fill="#AA7D65"/>
<path d="M149.734 220.9C149.814 219.593 148.426 217.533 147.472 218.429C147.004 218.869 147.486 220.999 147.486 220.999C148.226 221.164 149.011 221.13 149.734 220.9Z" fill="#DDB34A"/>
<path d="M157.825 248.957C158.136 248.898 158.339 248.577 158.278 248.266C158.032 247.02 156.884 245.586 156.06 246.361C155.592 246.801 156.073 248.931 156.073 248.931C156.647 249.059 157.247 249.067 157.825 248.957Z" fill="#DDB34A"/>
<path d="M139.726 272.24C139.258 272.68 139.739 274.811 139.739 274.811C140.48 274.976 141.265 274.941 141.988 274.711C142.068 273.405 140.68 271.344 139.726 272.24Z" fill="#DDB34A"/>
<path d="M155.682 284.338C155.188 283.927 153.133 284.667 153.133 284.667C153.06 285.422 153.191 286.196 153.508 286.886C154.814 286.805 156.688 285.175 155.682 284.338Z" fill="#DDB34A"/>
<path d="M144.416 239.193C144.512 239.978 145.384 240.439 146.057 240.024C146.972 239.46 147.647 238.506 146.953 237.93C146.665 237.69 145.845 237.842 145.212 238.01C144.7 238.146 144.352 238.644 144.413 239.17L144.416 239.193Z" fill="#DDB34A"/>
<path d="M154.43 229.754C154.766 229.663 154.879 229.232 154.829 228.888C154.778 228.543 154.626 228.207 154.668 227.861C154.717 227.473 154.999 227.162 155.236 226.852C155.751 226.178 156.484 223.744 154.86 223.742C153.738 223.741 154.189 225.685 153.909 226.494C153.771 226.895 153.524 227.255 153.404 227.663C153.237 228.232 153.342 228.874 153.679 229.36C153.851 229.608 154.139 229.833 154.43 229.754Z" fill="#DDB34A"/>
<path d="M156.126 267.439C155.003 267.438 155.454 269.382 155.175 270.191C155.036 270.593 154.79 270.953 154.67 271.361C154.503 271.929 154.607 272.571 154.945 273.058C155.117 273.305 155.405 273.529 155.696 273.45C156.032 273.359 156.145 272.929 156.094 272.585C156.044 272.24 155.891 271.904 155.934 271.558C155.982 271.17 156.264 270.859 156.502 270.549C157.017 269.876 157.75 267.441 156.126 267.439Z" fill="#DDB34A"/>
<path d="M148.342 260.594C148.678 260.503 148.791 260.073 148.741 259.728C148.69 259.384 148.538 259.047 148.58 258.702C148.629 258.314 148.911 258.003 149.148 257.692C149.663 257.019 150.397 254.585 148.772 254.583C147.65 254.582 148.101 256.526 147.822 257.335C147.683 257.736 147.436 258.096 147.316 258.504C147.15 259.073 147.254 259.715 147.592 260.201C147.763 260.449 148.051 260.673 148.342 260.594Z" fill="#DDB34A"/>
<path d="M83.4325 139.03C90.5949 133.079 99.4529 129.133 108.716 127.354C100.155 113.556 93.1263 98.4205 88.5697 82.5128C87.132 77.4913 82.5442 74.0322 77.3209 74.0322H66.4421C58.5324 74.0322 52.8885 81.7116 55.2557 89.2589C65.6728 122.47 86.7075 152.057 109.586 172.76C112.036 174.977 115.224 176.195 118.529 176.195C118.93 176.195 119.323 176.179 119.71 176.147C106.307 166.05 92.2252 152.266 83.4325 139.03Z" fill="#EEF8FC"/>
<path d="M59.5129 335.171C63.5446 322.216 70.5023 310.219 79.285 299.913C87.8922 289.615 98.5778 281.73 109.617 274.254C112.155 272.535 114.678 270.759 117.356 269.272C121.57 263.778 126.026 258.561 130.652 253.654C137.394 246.501 132.767 234.72 122.965 233.985C122.672 233.963 122.38 233.952 122.088 233.952C119.383 233.952 116.752 234.887 114.644 236.612C86.1894 259.899 59.9815 295.281 50.8565 335.316C49.6654 340.542 52.1738 345.644 56.506 348.102C57.0461 343.653 58.2564 339.208 59.5129 335.171Z" fill="#EEF8FC"/>
</svg>
