<svg width="106" height="107" viewBox="0 0 106 107" fill="none" xmlns="http://www.w3.org/2000/svg">
<path d="M100.615 0C98.282 0 96.354 1.47125 95.7169 3.61125L73.4757 62.4613L85.9864 67.0088L105.911 6.01875C106.126 4.94875 105.936 3.86203 105.514 3.00938C104.877 1.72203 103.809 0.827579 102.535 0.40125C101.898 0.183906 101.252 0 100.615 0ZM34.0902 8.76063C27.5205 8.76063 21.6044 12.2214 18.0051 17.7888C16.7308 17.7888 15.8869 17.9643 14.8278 18.3906L17.8065 21.8013C18.4436 21.5839 18.8242 21.6173 19.4613 21.4H20.5204L20.9838 20.5306C23.524 15.8243 28.5961 12.84 33.8917 12.84C40.6683 12.84 46.6257 17.5714 48.322 24.2088L48.7191 25.8806H50.8373C54.8586 25.8806 58.0525 28.6643 59.1116 32.3006H63.5466C62.4875 26.5243 57.8125 22.027 52.095 21.6006C49.3397 13.8933 42.3479 8.76063 34.0902 8.76063ZM4.63386 12.7063C4.10431 12.6561 3.50856 12.8149 2.97901 13.2413C1.9199 14.0939 1.87853 15.398 2.51565 16.2506L8.34073 23.4063C6.31354 25.8555 4.88209 28.798 4.43528 32.1H8.6717C9.04404 30.1021 9.87147 28.263 10.9885 26.6831L29.92 49.8888C29.738 50.3402 29.6552 50.825 29.6552 51.36C29.6552 53.7173 31.5583 55.64 33.8917 55.64C36.225 55.64 38.1281 53.7173 38.1281 51.36C38.1281 49.0027 36.225 47.08 33.8917 47.08C33.7096 47.08 33.5359 47.1218 33.3621 47.1469L5.95774 13.5088C5.64332 13.0824 5.16341 12.7564 4.63386 12.7063ZM2.11849 34.24C1.48137 34.24 0.819427 34.4824 0.39744 34.9088C-0.0245478 35.5524 0.000275048 36.1376 0.000275048 36.7812L10.5913 105.261C10.8065 106.114 11.6504 107 12.7095 107H48.7191C44.0607 103.364 42.3645 98.1976 42.3645 93.4913C42.3645 79.7986 54.4532 70.4027 63.348 65.27L67.783 36.7812C67.783 36.1376 67.8079 35.5357 67.3859 35.1094C66.9639 34.4657 66.3019 34.24 65.6648 34.24H28.199L35.1493 43.0006C39.1706 43.6443 42.3645 47.2973 42.3645 51.36C42.3645 56.0663 38.5501 59.92 33.8917 59.92C29.2332 59.92 25.4188 56.0663 25.4188 51.36V51.1594L11.6504 34.24H2.11849ZM70.9603 66.1394C63.9686 69.3494 46.6009 78.9376 46.6009 93.4913C46.6009 93.8925 46.634 94.2938 46.6671 94.695C46.6919 94.9792 46.6919 95.2802 46.7333 95.5644C46.7499 95.6898 46.7747 95.8402 46.7995 95.9656C46.8491 96.2248 46.9319 96.509 46.9981 96.7681C47.2546 97.8047 47.6517 98.7995 48.1896 99.7775C48.2392 99.8695 48.2723 99.9614 48.322 100.045C48.4874 100.321 48.6612 100.58 48.8515 100.848C48.9839 101.031 49.108 101.207 49.2487 101.383C49.3149 101.466 49.3728 101.566 49.4473 101.65C49.7203 101.976 50.0513 102.285 50.374 102.586C53.0217 105.169 57.1754 107 63.348 107C61.0147 105.286 59.0951 103.146 58.2511 100.58C55.0738 92.6637 60.5679 83.878 63.7452 80.4506C64.5892 79.598 65.88 79.598 66.7239 80.4506C67.5679 81.3033 67.5679 82.6073 66.7239 83.46C63.5466 86.67 59.757 93.5414 62.0903 99.1088C63.5714 102.745 67.3445 105.286 73.2771 107H78.3741C74.9816 105.077 72.8965 102.904 71.6223 100.981C69.5041 97.5539 68.8421 93.7337 69.9012 89.88C70.3232 88.81 71.3575 88.1914 72.4166 88.4088C73.4757 88.6261 74.1542 89.88 73.9391 90.95C73.5171 92.4463 73.0786 95.23 75.1968 98.44C77.315 101.433 82.2133 105.512 93.8635 106.799H103.793C104.852 106.799 105.696 105.93 105.911 104.86C105.911 104.007 105.249 102.937 104.19 102.72C103.975 102.72 89.8257 99.2843 84.5301 89.0106C81.7748 83.878 84.5301 71.0213 84.5301 71.0213H84.3316L71.6223 66.34L70.9603 66.1394Z" fill="white"/>
</svg>
